PathFileType	4	(X/Y/Z)	36_2_rein_112_p1_0-472_filt_butterworth.trc
DataRate	CameraRate	NumFrames	NumMarkers	Units	OrigDataRate	OrigDataStartFrame	OrigNumFrames
51.0	51.0	5	27	m	51.0	59	472
Frame#	Time	RHip			RKnee			RAnkle			RBigToe			RSmallToe			RHeel			LHip			LKnee			LAnkle			LBigToe			LSmallToe			LHeel			Neck			Head			Nose			RShoulder			RElbow			RWrist			RThumb			RIndex			RPinky			LShoulder			LElbow			LWrist			LThumb			LIndex			LPinky			
		X1	Y1	Z1	X2	Y2	Z2	X3	Y3	Z3	X4	Y4	Z4	X5	Y5	Z5	X6	Y6	Z6	X7	Y7	Z7	X8	Y8	Z8	X9	Y9	Z9	X10	Y10	Z10	X11	Y11	Z11	X12	Y12	Z12	X13	Y13	Z13	X14	Y14	Z14	X15	Y15	Z15	X16	Y16	Z16	X17	Y17	Z17	X18	Y18	Z18	X19	Y19	Z19	X20	Y20	Z20	X21	Y21	Z21	X22	Y22	Z22	X23	Y23	Z23	X24	Y24	Z24	X25	Y25	Z25	X26	Y26	Z26	X27	Y27	Z27	
59	1.156862745098039	0.3194882912854592	0.586737134799849	-0.15806023112507075	0.3555757968924277	0.6601985812883834	0.26818002463294915	0.383026602883133	0.7521914895111247	0.7214597822914812	0.3224580122496322	0.503386437578551	0.7424988530105305	0.4022545909858848	0.562562610719311	0.7546650507778891	0.354327906554633	0.844094298764712	0.7858132063933729	0.10621939225262289	0.5773787070342266	-0.13060431675305006	0.14104485148187973	0.665524654303995	0.31118604255130383	0.17253374093472296	0.7300650031513904	0.7154986705310207	0.19249142346723697	0.5356868212538552	0.7522836228425226	0.13755235861118634	0.5790563351351946	0.7702363375999338	0.19255001006548458	0.7971326488706029	0.7819890796646165	0.16355860587166265	0.477168377742291	-0.7649036065748734	0.1467888639348197	0.4036859708934563	-1.0354307159095544	0.1466328939768591	0.3444697963616498	-0.8665559450401475	0.3372049489967878	0.5565512561612017	-0.7032516062642531	0.43535592292272285	0.5239983333274086	-0.4293804105690352	0.31676075906267065	0.423150440082639	-0.21148515145683258	0.1991376957046277	0.40597248406830655	-0.1258197632364406	0.21909103769353538	0.39531220583543875	-0.10188842037164533	0.2527721059434867	0.34636882208648956	-0.09784450721864829	0.0021682757083723546	0.5162905402268343	-0.6885703992753301	0.006519731346800113	0.5015394380543435	-0.38604684348488005	0.08004126277448788	0.41814967130768854	-0.1355584675039532	0.14684985003645423	0.4875287241522984	-0.03727046387427516	0.1402803768154582	0.4575689794509497	0.0014129686800731004	0.09658770898676405	0.44092929684244886	0.009061138841888645
60	1.1764705882352942	0.31839365702467554	0.5893867394344557	-0.15523476821438245	0.35550603599923764	0.6604415133099066	0.26938532494841727	0.3830566386818113	0.7522056953606118	0.7214578071621467	0.3212264603906171	0.5025918955074808	0.7422796660609762	0.40124568500052965	0.559092121936698	0.7532193464125339	0.35482761311294264	0.8448882731343778	0.7875283494600372	0.1060521858638532	0.5775402864728134	-0.12718365253897307	0.14116765837464226	0.6654770793512967	0.3111132124336848	0.17246718658283053	0.7304380906820903	0.7156452634605333	0.19111396483201362	0.5350913576154991	0.7523087891076594	0.13769018893806714	0.5790707312140554	0.7702538876648013	0.19281906236147572	0.7972674711086176	0.7818219959656548	0.163554028767227	0.47719090980176293	-0.7649010538620029	0.14676706398876116	0.4036817801748599	-1.035295975095254	0.14677434381178853	0.3447709118814463	-0.8652649004513951	0.3372207426315097	0.5565710293578356	-0.7031421369857018	0.4355755167547562	0.5241128995102828	-0.4297493524365058	0.31679815375856885	0.42277627793671824	-0.21349374537865934	0.20017104811005162	0.40637338128704026	-0.1262121083735129	0.21950398226360324	0.3956606611896548	-0.10562251264241289	0.2528865358479206	0.3482074543208332	-0.09970260594873917	0.00232012777053526	0.5166452102201298	-0.6873835014491569	0.006148064938465321	0.5022519783999995	-0.3845799205095908	0.0780462854123605	0.42256694159269387	-0.13455808286412574	0.1465593890783552	0.48903057068812306	-0.03680866358080402	0.13865999408300383	0.45746697704240247	0.00159704372316138	0.09640539639721447	0.43811659954732474	0.008437575476543838
61	1.196078431372549	0.3177270996701358	0.5908544187801152	-0.15472418521930922	0.3554516802120399	0.6605524674627261	0.26969632956170075	0.3830809284595647	0.7522068056956953	0.7214534069219923	0.3208940158963107	0.5021936470501333	0.7421962014106114	0.3997843009442934	0.5540016680981349	0.7510492982058118	0.35501443326536036	0.8452251962888258	0.7879354368756468	0.1056427694102254	0.5778701990311838	-0.12570915174617261	0.14125727074700653	0.6654331604222609	0.31100992175023867	0.17239200025321785	0.7308455464700608	0.7157850881564948	0.18912743305762625	0.5341735838100391	0.7522235137858828	0.13764721254354262	0.5791067597827506	0.7702510216153434	0.19315127839176824	0.7978388247152761	0.7817628083943031	0.16354847130659939	0.4772186591365214	-0.764885699756517	0.14675289384278717	0.4036893022351016	-1.035188802540327	0.14677282478251188	0.3450403066370161	-0.8644566690915233	0.3372295420307228	0.5565885199495156	-0.7030406604848869	0.43626605086622394	0.5240947270676176	-0.4310313232391488	0.31654385849067646	0.42286556901027844	-0.21510558295441354	0.20263331761999767	0.4075785738771326	-0.12927814962801376	0.2206010917937981	0.39545519154220055	-0.1103610361744856	0.254149549885669	0.35115806661611554	-0.10410627271800407	0.002422145517021812	0.5169039375539335	-0.6861940998170613	0.004777681628180656	0.505321543022364	-0.3834122416893252	0.07514332791644893	0.4269607211944979	-0.13345106653189137	0.14647894382388374	0.48834986127736285	-0.0365587072382715	0.1380486950426315	0.4565178502808627	0.0014504477637881093	0.09665779985506828	0.4387889950630661	0.008204579682597532
62	1.2156862745098038	0.31746856407816276	0.5912537329442982	-0.15461010986961493	0.35538420191403375	0.6605350236188842	0.26954179282105284	0.3830960212789073	0.7521846839193833	0.721443984527238	0.32093436435462097	0.5019996885048525	0.7421859092106133	0.3986560784462426	0.5501665843975392	0.7494665159331557	0.3550204671357984	0.8452270720048298	0.7877660815619492	0.10522212642103049	0.578110183776344	-0.125581376032537	0.1413370699576652	0.6654959175148212	0.31094974716585216	0.17276493529427106	0.7295800039263758	0.7151590250663709	0.18771566643940474	0.5334456447408717	0.7520387216604606	0.13760002048193423	0.5791199172016013	0.7702463049258929	0.19313299308503773	0.79826420333588	0.7815802076039412	0.16354346733880065	0.47723176025428965	-0.764856552383721	0.1467409658439082	0.4036955604693654	-1.0351302856854339	0.1466354318670752	0.3452326436595191	-0.8642455704128237	0.3372222785684932	0.5565907377942172	-0.7030253052590769	0.4374610858405146	0.5239772953800691	-0.43277798367258646	0.31630903689566026	0.42355329565947114	-0.21704659046717673	0.20547596253606062	0.4084753081837144	-0.1358694912225622	0.22239428935950675	0.3934500924896418	-0.11680699156643468	0.2565256932026015	0.3517761659642208	-0.11166591775544399	0.0024793322402093644	0.5169885761957644	-0.6848791812788659	0.002839386950760918	0.5100975645374083	-0.3827368377711454	0.07228042005564733	0.42967279803313657	-0.1327097631555546	0.14537938636753386	0.48485364925646146	-0.03682835942693253	0.1356612493572304	0.4497980872317622	-0.0008103319226279724	0.0948590004527731	0.4393312045764276	0.008061370887974012
63	1.2352941176470589	0.3177828162781499	0.5900309174157371	-0.15498755924229685	0.35532158457410856	0.660472458152343	0.2694225566434672	0.3831073764358729	0.752142125645992	0.7214345793366719	0.3208544983180717	0.5018033464358163	0.7421654326854894	0.39817255668261486	0.5487898100598945	0.7490186842782003	0.3550013511364526	0.8451024988441702	0.7876309382377912	0.1052877293586575	0.5772099862646781	-0.12583217848421707	0.14142827688643533	0.665637070247011	0.3109520008484923	0.17411826009861633	0.7249394600583742	0.7129798026302959	0.18733167318019517	0.533171296176857	0.7518774617559154	0.13758636943314373	0.579133739139583	0.7702433151017383	0.19241526904107636	0.7970811663373949	0.7810891218905968	0.1635418884180318	0.4772319753943357	-0.7648171915933881	0.14673952062961554	0.4036296039923424	-1.035097631135172	0.14687333935246855	0.3454183618973525	-0.8639566939326961	0.3372101455697874	0.5565506829298671	-0.7030420990540035	0.4393380691660827	0.5239148809892744	-0.43423441685002295	0.3163344706840087	0.42319221020903286	-0.2207538038234101	0.20732408243889267	0.4071042580097905	-0.14394994994375918	0.22452313572479038	0.3895811977209117	-0.12563525344681262	0.25869350265093227	0.3473832879382301	-0.12100508452733219	0.0025932130872574296	0.517021391806222	-0.6831873320970812	0.001109915481485451	0.5147981719865335	-0.3824166583333987	0.07069522365162496	0.43015478080508124	-0.1325012449350132	0.14262578153822228	0.4796528521264921	-0.03763511317735499	0.1310829065913276	0.43951138615682994	-0.005535016727794372	0.09125612369339248	0.440507617360253	0.006952689569722078
